<?xml version="1.0" encoding="UTF-8"?>
<!DOCTYPE svg PUBLIC "-//W3C//DTD SVG 1.1//EN" "http://www.w3.org/Graphics/SVG/1.1/DTD/svg11.dtd">
<!-- Creator: CorelDRAW X7 -->
<svg xmlns="http://www.w3.org/2000/svg" xml:space="preserve" width="86.6987mm" height="23.1094mm" version="1.1" style="shape-rendering:geometricPrecision; text-rendering:geometricPrecision; image-rendering:optimizeQuality; fill-rule:evenodd; clip-rule:evenodd"
viewBox="0 0 8670 2311"
 xmlns:xlink="http://www.w3.org/1999/xlink">
 <defs>
  <style type="text/css">
   <![CDATA[
    .fil0 {fill:#6A4029}
    .fil1 {fill:#332C2B;fill-rule:nonzero}
   ]]>
  </style>
 </defs>
 <g id="Layer_x0020_1">
  <metadata id="CorelCorpID_0Corel-Layer"/>
  <g id="_263323200">
   <path class="fil0" d="M1958 208l0 -208 -617 0 0 208 -1341 0 0 401 274 0 46 286 1601 0 46 -286 274 0 0 -401 -283 0zm-72 906l-51 324 -1428 0 -52 -324 1531 0zm-86 543l-104 654 -575 0 -575 0 -105 -654 1359 0z"/>
   <path class="fil1" d="M3755 1786c-105,0 -196,-18 -272,-52 -77,-35 -136,-86 -178,-153 -42,-68 -65,-151 -69,-251 -2,-46 -2,-95 -2,-148 0,-52 0,-103 2,-151 4,-97 28,-180 70,-249 43,-68 102,-120 178,-154 76,-35 167,-52 271,-52 74,0 142,9 205,27 63,19 118,46 165,81 47,35 83,78 110,128 26,50 40,106 41,169 1,10 -2,18 -9,25 -8,7 -16,10 -26,10l-227 0c-15,0 -26,-3 -34,-9 -8,-6 -14,-18 -20,-35 -16,-59 -41,-100 -77,-122 -35,-21 -78,-32 -130,-32 -61,0 -110,17 -146,51 -36,34 -55,91 -59,170 -3,92 -3,187 0,283 4,79 23,136 59,170 36,35 85,52 146,52 52,0 95,-11 131,-34 36,-22 61,-63 76,-121 4,-17 11,-28 19,-34 9,-7 20,-10 35,-10l227 0c10,0 18,4 26,10 7,7 10,16 9,26 -1,62 -15,119 -41,169 -27,50 -63,92 -110,127 -47,36 -102,63 -165,81 -63,19 -131,28 -205,28z"/>
   <path id="1" class="fil1" d="M4848 1786c-95,0 -174,-15 -238,-46 -65,-30 -114,-73 -148,-130 -34,-56 -54,-124 -58,-202 -1,-23 -2,-48 -2,-77 0,-28 1,-53 2,-75 4,-79 24,-147 60,-203 36,-56 86,-99 151,-130 64,-30 142,-45 233,-45 91,0 170,15 234,45 64,31 115,74 150,130 36,56 56,124 61,203 1,22 2,47 2,75 0,29 -1,54 -2,77 -5,78 -24,146 -58,202 -34,57 -84,100 -148,130 -64,31 -144,46 -239,46zm0 -205c50,0 87,-15 110,-46 23,-30 36,-75 39,-136 1,-17 2,-39 2,-67 0,-28 -1,-50 -2,-67 -3,-60 -16,-105 -39,-136 -23,-30 -60,-46 -110,-46 -49,0 -85,16 -109,46 -24,31 -37,76 -39,136 -2,17 -2,39 -2,67 0,28 0,50 2,67 2,61 15,106 39,136 24,31 60,46 109,46z"/>
   <path id="2" class="fil1" d="M5594 1769c-11,0 -21,-4 -30,-13 -8,-8 -12,-18 -12,-29l0 -612 -128 0c-12,0 -22,-4 -30,-12 -8,-7 -12,-18 -12,-30l0 -136c0,-12 4,-22 12,-30 8,-8 18,-12 30,-12l128 0 0 -54c0,-76 15,-137 44,-184 30,-46 72,-80 127,-101 55,-21 121,-31 197,-31l131 0c12,0 22,4 30,12 8,8 12,18 12,30l0 136c0,13 -4,23 -12,31 -8,7 -18,11 -30,11l-118 0c-38,0 -64,9 -79,27 -16,18 -23,44 -23,78l0 45 331 0 0 -54c0,-76 15,-137 45,-184 31,-46 73,-80 128,-101 55,-21 121,-31 197,-31l129 0c13,0 23,4 30,12 8,8 12,18 12,30l0 136c0,13 -4,23 -12,31 -7,7 -17,11 -30,11l-117 0c-39,0 -65,9 -80,27 -15,18 -23,44 -23,78l0 45 203 0c13,0 23,4 31,12 7,8 11,18 11,30l0 136c0,12 -4,23 -11,30 -8,8 -18,12 -31,12l-203 0 0 612c0,11 -4,21 -12,29 -8,9 -18,13 -30,13l-193 0c-13,0 -23,-4 -31,-13 -9,-8 -13,-18 -13,-29l0 -612 -331 0 0 612c0,11 -4,21 -12,29 -8,9 -18,13 -30,13l-195 0z"/>
   <path id="3" class="fil1" d="M6849 1769c-12,0 -22,-4 -30,-13 -8,-8 -12,-18 -12,-29l0 -1109c0,-13 4,-23 12,-31 8,-8 18,-11 30,-11l195 0c12,0 21,3 30,11 8,8 12,18 12,31l0 563 234 -258c7,-7 14,-14 22,-20 8,-5 19,-8 34,-8l225 0c10,0 19,4 26,11 7,7 11,16 11,26 0,4 -1,9 -3,15 -1,6 -5,10 -11,13l-302 327 344 418c9,9 14,17 14,25 0,12 -4,21 -11,28 -7,7 -17,11 -28,11l-230 0c-17,0 -29,-3 -37,-9 -8,-6 -15,-13 -22,-20l-266 -319 0 306c0,11 -4,21 -12,29 -9,9 -18,13 -30,13l-195 0z"/>
   <path id="4" class="fil1" d="M7954 2088c-10,0 -19,-3 -25,-10 -7,-6 -10,-15 -10,-25 0,-2 0,-5 0,-9 1,-4 2,-8 5,-13l131 -316 -323 -763c-3,-8 -5,-14 -5,-20 2,-10 7,-19 13,-26 7,-7 15,-11 26,-11l191 0c15,0 26,4 33,11 7,7 13,15 16,24l192 489 196 -489c5,-9 11,-17 18,-24 7,-7 18,-11 33,-11l188 0c10,0 19,4 26,11 7,7 11,15 11,24 0,6 -2,13 -5,22l-476 1101c-3,9 -9,17 -17,24 -8,8 -19,11 -33,11l-185 0z"/>
  </g>
 </g>
</svg>
